<svg xmlns="http://www.w3.org/2000/svg" viewBox="0 0 512 512" width="100%" height="100%">
  <defs>
    <linearGradient id="purpleGrad" x1="0%" y1="0%" x2="100%" y2="100%">
      <stop offset="0%" stop-color="#672cd8"/>
      <stop offset="100%" stop-color="#551abf"/>
    </linearGradient>
  </defs>
  <!-- Background Circle -->
  <circle cx="256" cy="256" r="236" fill="url(#purpleGrad)"/>
  
  <!-- Classical Building Icon -->
  <g fill="#ffffff">
    <!-- Pediment Roof (Triangle Outer and Cutout Inner for hollow look) -->
    <path d="M 256 100 L 400 196 L 382 220 L 256 136 L 130 220 L 112 196 Z" />
    
    <!-- Entablature / Architrave beam under pediment -->
    <rect x="116" y="218" width="280" height="24" rx="4" ry="4" />
    
    <!-- 4 Columns -->
    <!-- Column 1 -->
    <rect x="146" y="246" width="28" height="126" rx="4" ry="4" />
    <!-- Column 2 -->
    <rect x="211" y="246" width="28" height="126" rx="4" ry="4" />
    <!-- Column 3 -->
    <rect x="273" y="246" width="28" height="126" rx="4" ry="4" />
    <!-- Column 4 -->
    <rect x="338" y="246" width="28" height="126" rx="4" ry="4" />
    
    <!-- Stepped Foundation (Upper Step) -->
    <rect x="126" y="374" width="260" height="20" rx="3" ry="3" />
    <!-- Stepped Foundation (Base Step) -->
    <rect x="108" y="396" width="296" height="22" rx="4" ry="4" />
  </g>
</svg>
